<svg width="90" height="81" viewBox="0 0 90 81" fill="rgba(255,255,2555,0.1)" id="chula_mad_svg" xmlns="http://www.w3.org/2000/svg">
<path d="M44.4829 40.238C45.0199 40.712 46.2229 41.757 47.9159 42.298C48.7109 42.552 50.3829 43.086 52.2189 42.39C52.4789 42.291 55.1519 41.231 55.5149 38.819C55.7339 37.362 54.9899 36.205 54.4619 35.386C54.0179 34.697 52.6569 32.583 49.9759 32.182C47.2659 31.777 45.0399 33.677 44.7569 33.922C43.8739 34.687 43.4329 35.497 42.0099 36.302C41.2629 36.724 40.5859 36.953 40.1329 37.08C40.5599 37.233 41.2059 37.499 41.9179 37.95C43.1359 38.72 43.4919 39.362 44.4829 40.238ZM51.0289 37.354C51.2879 38.483 50.4269 39.707 49.2439 39.78C48.2359 39.842 47.2839 39.051 47.1839 37.995C47.0819 36.914 47.9079 35.931 48.9689 35.844C49.9399 35.763 50.8229 36.456 51.0289 37.354ZM44.7109 34.882C46.1229 33.703 47.7459 33.419 48.9059 33.397C49.5189 33.351 50.0459 33.433 50.3869 33.509C50.2049 33.476 49.6509 33.383 48.9059 33.397C48.4699 33.429 47.9909 33.526 47.5029 33.738C45.6689 34.534 44.4949 36.613 44.5279 39.002C44.2479 38.862 43.8869 38.645 43.5209 38.315C43.2169 38.041 42.9939 37.766 42.8339 37.537C43.0829 36.892 43.6129 35.8 44.7109 34.882Z" fill="black"/>
<path d="M14.4528 38.59C15.3168 39.129 16.4738 38.62 18.2068 37.858C19.4988 37.29 20.4968 36.838 21.4568 35.798C21.9838 35.227 22.5598 34.603 22.7388 33.601C22.9648 32.333 22.4048 31.301 22.1898 30.946C22.1748 30.328 22.0878 29.555 21.8238 28.703C21.2088 26.723 19.9868 25.461 19.3058 24.858C19.5528 25.158 20.2698 26.106 20.2668 27.467C20.2658 28.193 20.0598 28.768 19.9008 29.115C19.5858 28.869 18.4488 28.045 16.9248 28.199C15.2738 28.367 13.7378 29.628 13.6288 30.717C13.6128 30.879 13.6258 31.063 13.5828 31.587C13.5248 32.31 13.4298 32.83 13.3998 33.006C13.2368 33.967 12.9398 35.713 13.6288 37.355C13.8788 37.951 14.0398 38.333 14.4528 38.59ZM18.1608 32.044C19.3618 31.504 21.0768 32.509 21.1368 33.6C21.1958 34.677 19.6438 35.859 18.3898 35.477C17.7538 35.283 17.1128 34.663 17.0618 33.829C17.0118 33.007 17.5588 32.315 18.1608 32.044ZM16.4668 29.893C16.5748 29.977 15.0128 31.307 14.9108 33.326C14.8368 34.78 15.5458 36.055 16.3298 37.034C14.9848 36.4 14.0808 35.135 13.9948 33.738C13.8428 31.264 16.3418 29.796 16.4668 29.893Z" fill="black"/>
<path d="M48.8769 58.961C49.5379 58.622 50.8389 57.955 51.2569 56.581C51.7889 54.835 50.5109 53.218 50.3409 53.01C50.4379 53.497 50.5439 54.361 50.2969 55.384C50.1869 55.837 49.9599 56.772 49.2429 57.497C48.4319 58.316 47.7309 58.12 46.3129 58.687C44.1739 59.542 42.8549 61.153 42.9249 61.251C42.9769 61.323 43.7799 60.578 45.3049 59.969C47.0709 59.264 47.5619 59.636 48.8769 58.961Z" fill="black"/>
<path d="M49.1519 70.222C46.5929 72.884 45.1769 75.664 44.3909 77.546C45.0719 76.65 46.0509 75.431 47.3209 74.067C50.2569 70.913 52.9429 68.923 53.5469 68.482C57.5239 65.575 58.9059 65.693 61.2379 63.172C62.6419 61.654 63.4929 60.149 63.9849 59.144C60.4629 61.768 57.5859 63.824 55.6539 65.187C52.0709 67.712 50.7769 68.532 49.1519 70.222Z" fill="black"/>
<path d="M73.0469 39.826C74.0909 39.423 75.0619 39.411 75.7019 39.46C74.5559 39.115 72.8319 38.81 71.2159 39.552C70.3789 39.936 69.3649 40.695 66.8209 45.869C64.8429 49.891 64.8239 50.718 63.4329 52.186C61.4729 54.255 59.3429 54.904 59.4049 55.024C59.4829 55.176 63.0469 54.48 65.4479 51.728C67.0909 49.845 66.3469 49.11 68.7439 44.678C70.5249 41.385 71.7219 40.338 73.0469 39.826Z" fill="black"/>
<path d="M16.8029 46.174C16.7419 46.721 16.7049 47.797 17.2609 48.921C18.4359 51.296 21.1729 51.694 21.4419 51.729C21.1949 51.231 20.8569 50.359 20.9539 49.288C21.0129 48.641 21.2199 48.025 21.3199 48.037C21.4449 48.052 21.2519 49.031 21.5949 50.173C21.8109 50.892 22.1669 51.433 22.4499 51.79C23.1709 51.687 24.1349 51.459 25.1659 50.936C27.2749 49.865 28.3919 48.202 28.8589 47.396C28.3599 47.462 27.6269 47.517 26.7529 47.427C25.4499 47.292 24.3209 47.175 23.8229 46.359C23.2879 45.482 23.5829 43.963 24.3419 43.673C24.9189 43.453 25.8599 43.906 25.9289 44.466C25.9759 44.849 25.6189 45.31 25.3489 45.29C25.0389 45.267 24.9789 44.622 24.7079 44.619C24.4699 44.616 24.1489 45.114 24.2199 45.535C24.3469 46.296 25.7239 46.609 26.2339 46.725C27.1229 46.927 28.3109 47.197 29.1939 46.45C30.0219 45.749 30.0199 44.629 30.0179 44.497C29.9909 42.899 28.4369 41.903 27.9119 41.567C26.3199 40.547 24.6309 40.688 24.0059 40.774C23.6159 40.487 22.8849 40.039 21.8999 39.95C20.1629 39.793 18.9039 40.868 18.0849 41.567C17.2899 42.246 16.2749 43.113 16.3759 44.222C16.4249 44.752 16.7439 45.509 17.3829 45.656C18.0519 45.81 18.8349 45.241 18.8169 44.832C18.7989 44.43 18.0119 44.326 18.0229 43.947C18.0329 43.628 18.6039 43.27 18.9689 43.398C19.4289 43.559 19.5879 44.498 19.3349 45.107C19.0229 45.856 18.0039 46.299 16.8029 46.174Z" fill="black"/>
<path d="M35.6018 60.289C36.7068 59.566 37.5218 59.457 38.0278 59.236C38.9238 58.846 39.9188 57.643 40.2248 53.972C39.4548 54.177 38.4248 54.372 37.2038 54.384C36.1358 54.395 35.2178 54.264 34.5028 54.109C34.4228 54.505 34.3438 55.12 34.4568 55.849C34.5758 56.612 34.8028 56.845 34.9608 57.726C35.0448 58.197 35.2688 59.451 34.8688 59.649C34.4528 59.855 33.5328 58.827 33.1748 58.367C32.8548 57.956 32.6538 57.573 32.5338 57.314C32.3778 57.67 32.2238 58.052 32.0758 58.458C31.9558 58.789 31.8488 59.11 31.7558 59.419C31.4298 59.351 30.9468 59.289 30.3828 59.373C29.6098 59.488 29.1018 59.816 28.8268 59.968C27.7778 60.549 26.6628 60.477 24.4318 60.334C23.0638 60.246 22.1338 60.013 21.0438 59.739C19.7258 59.408 19.2088 59.156 18.7548 58.778C18.1608 58.283 17.8328 57.703 17.6558 57.313C17.4728 57.669 17.2848 58.192 17.4268 58.732C17.6438 59.555 18.5198 60.003 20.0818 60.563C22.7058 61.505 24.0178 61.976 25.6668 62.028C28.5468 62.119 30.7378 61.222 31.8008 60.7C31.9808 60.977 32.2648 61.374 32.6708 61.799C33.4748 62.641 34.5328 63.356 34.7308 63.172C34.8978 63.017 34.2238 62.439 34.3648 61.661C34.4008 61.471 34.5348 60.987 35.6018 60.289Z" fill="black"/>
<path d="M17.2449 59.465C17.1549 59.25 17.0019 58.802 17.0619 58.229C17.1329 57.545 17.4649 57.083 17.6109 56.901C17.4229 56.822 17.1289 56.662 16.9239 56.352C16.5069 55.719 16.7579 54.902 16.8319 54.658C17.0819 53.842 17.5839 53.529 17.4269 53.239C17.3309 53.062 17.1049 53.106 16.6029 52.919C16.1969 52.767 15.8909 52.568 15.6869 52.415C15.5099 52.826 14.4889 55.307 15.7329 57.679C16.1809 58.532 16.7819 59.106 17.2449 59.465Z" fill="black"/>
<path d="M18.8019 58C18.9019 58.018 19.1059 58.069 19.3059 58.229C19.4919 58.378 19.5849 58.549 19.6259 58.641C19.6929 58.537 19.8739 58.288 20.1749 58.229C20.3429 58.196 20.5119 58.23 20.8619 58.412C21.1349 58.554 21.5109 58.783 21.9149 59.144C22.1799 59.076 22.7259 58.976 23.3799 59.144C23.9049 59.279 24.2749 59.531 24.4789 59.693C24.6559 59.392 24.8609 59.254 24.9829 59.189C25.4559 58.938 25.9949 59.086 26.5389 59.235C26.8159 59.311 27.0359 59.4 27.1799 59.464C27.2549 59.396 27.5319 59.163 27.9579 59.144C28.3639 59.125 28.6509 59.312 28.7359 59.373C28.7969 59.215 28.8729 59.046 28.9649 58.869C29.1269 58.559 29.3039 58.3 29.4689 58.091C29.2359 57.868 28.9519 57.551 28.6909 57.13C28.4009 56.662 28.2369 56.224 28.1419 55.894C27.9519 56.445 27.7429 56.919 27.5469 57.313C27.0499 58.311 26.8189 58.42 26.6769 58.457C26.2719 58.564 25.8459 58.289 25.6239 58.045C25.3739 57.77 25.2999 57.444 25.2919 57.179C25.1449 57.792 24.7359 58.219 24.2969 58.274C23.7819 58.339 23.3489 57.879 23.2899 57.816C22.8769 57.378 22.8749 56.838 22.8779 56.717C22.8389 56.861 22.7109 57.254 22.3289 57.541C22.2039 57.635 21.7909 57.945 21.3219 57.816C20.9259 57.707 20.7329 57.353 20.6349 57.175C20.4179 56.778 20.4159 56.376 20.4499 56.106C20.4159 56.233 20.3609 56.381 20.2689 56.535C20.1319 56.762 19.9669 56.909 19.8569 56.993C19.8689 57.051 19.9339 57.387 19.7199 57.68C19.5179 57.952 19.1579 58.078 18.8019 58Z" fill="black"/>
<path d="M25.2899 57.179C25.3279 57.021 25.3489 56.851 25.3479 56.672C25.3399 56.697 25.2809 56.906 25.2899 57.179Z" fill="black"/>
<path d="M31.2529 53.971C30.7219 53.825 29.9069 53.657 28.9179 53.696C27.6369 53.746 27.3669 54.091 25.9879 54.2C24.6829 54.303 23.6049 54.097 22.9669 53.971C22.0029 53.781 21.6589 53.595 20.2199 53.33C18.8999 53.087 18.3469 53.088 18.1599 53.376C18.0739 53.508 18.0959 53.654 18.2059 54.154C18.2859 54.518 18.3819 54.928 18.4959 55.377C18.4369 55.006 18.4369 54.48 18.7559 54.016C18.9269 53.767 19.1379 53.61 19.3049 53.512C19.4159 53.773 19.5709 54.133 19.7629 54.565C19.9339 54.949 20.0179 55.129 20.2209 55.297C20.4429 55.482 20.6839 55.549 20.7699 55.572C21.1179 55.665 21.2719 55.574 21.5019 55.618C21.7269 55.661 22.0289 55.835 22.3259 56.442C22.4509 56.295 22.9449 55.745 23.7909 55.618C24.4819 55.514 25.0169 55.75 25.2099 55.847C25.4509 55.665 25.8669 55.398 26.4459 55.252C27.1969 55.062 27.8259 55.174 28.1399 55.252C28.2259 55.08 28.5179 54.549 29.1469 54.291C29.5579 54.122 30.2899 53.998 30.5659 54.337C30.6609 54.454 30.6369 54.547 30.6579 55.71C30.6589 55.788 30.6629 55.961 30.6759 56.19C30.6849 56.357 30.6969 56.492 30.7039 56.579C31.0699 56.396 31.4359 56.213 31.8029 56.03C31.7069 55.811 31.6119 55.567 31.5279 55.298C31.3739 54.808 31.2939 54.356 31.2529 53.971Z" fill="black"/>
<path d="M18.4958 55.378C18.5348 55.623 18.5998 55.802 18.6178 55.848C18.5758 55.687 18.5348 55.53 18.4958 55.378Z" fill="black"/>
<path d="M32.9468 54.795C33.3978 54.789 33.7648 54.867 33.9998 54.932C34.0148 54.627 34.0308 54.322 34.0458 54.016C33.6868 54.029 33.2698 54.021 32.8098 53.97C32.3418 53.919 31.9268 53.834 31.5738 53.741C31.4968 54.432 31.6508 54.687 31.8028 54.794C32.0408 54.963 32.3328 54.804 32.9468 54.795Z" fill="black"/>
<path d="M40.8809 59.602C40.6339 60.106 37.2009 66.817 30.0169 67.537C25.3179 68.008 21.8029 65.636 20.6779 64.79C18.2099 62.933 16.9659 60.687 16.4049 59.48C16.8099 60.694 17.8249 63.168 20.2499 65.217C24.2319 68.582 28.9649 68.225 30.1989 68.086C35.7509 67.461 39.7849 63.449 41.3689 59.724C42.3969 57.306 42.5049 54.741 42.4069 54.719C42.3099 54.697 42.0659 57.187 40.8809 59.602Z" fill="black"/>
<path d="M14.1479 47.578C14.0729 44.519 16.0089 41.991 17.6879 40.315C17.1089 40.709 13.4349 43.288 13.4769 47.151C13.5039 49.641 15.0639 51.718 15.1859 51.668C15.2969 51.622 14.2019 49.795 14.1479 47.578Z" fill="black"/>
<path d="M41.0029 44.038C40.9729 43.79 40.5319 40.554 37.5849 39.033C35.2709 37.838 32.3759 38.198 30.2609 39.949C33.0209 38.287 36.5569 38.812 38.6229 41.109C40.8539 43.589 40.8249 47.53 38.4399 50.081C38.5929 49.961 41.4359 47.671 41.0029 44.038Z" fill="black"/>
<path d="M22.8759 30.854C23.0809 31.193 23.5259 32.033 23.4859 33.173C23.4329 34.683 22.5659 35.665 22.3259 35.92C23.2109 35.373 24.1569 34.727 25.1339 33.967C25.8749 33.39 26.5449 32.815 27.1479 32.258C26.4839 32.227 25.5559 32.105 24.5229 31.709C23.8499 31.45 23.2999 31.138 22.8759 30.854Z" fill="black"/>
<path d="M40.2098 37.568C39.4218 37.159 38.8088 37.129 38.8058 36.958C38.8018 36.729 39.8989 36.71 40.8809 36.348C42.7639 35.653 43.0828 34.112 44.7868 32.442C45.5508 31.693 46.7529 30.762 48.6319 30.062C47.9779 29.971 46.7069 29.887 45.2749 30.428C43.1059 31.248 42.0429 32.943 41.7349 33.48C41.0589 33.678 40.0638 34.015 38.9268 34.579C37.3018 35.385 35.3028 36.698 35.5088 37.265C35.6438 37.635 36.5889 37.333 37.7059 38.058C38.1499 38.346 38.4459 38.682 38.6219 38.912C38.9059 38.761 39.3659 38.561 39.9649 38.485C40.6589 38.396 41.2248 38.513 41.5518 38.607C41.2768 38.304 40.8378 37.894 40.2098 37.568Z" fill="black"/>
<path d="M63.1599 25.635C63.5189 26.674 64.0659 28.193 64.8079 30.03C65.1409 29.898 65.5069 29.773 65.9069 29.664C66.8719 29.401 67.7489 29.312 68.4699 29.298C67.6889 28.82 66.3339 27.825 65.5399 26.094C64.1499 23.061 65.2619 19.469 67.0959 17.396C70.1409 13.956 75.6379 14.182 78.0829 14.283C81.9869 14.444 83.3749 15.609 85.0409 14.649C87.4279 13.274 87.6139 9.132 87.4209 5.951C83.6709 6.316 80.6569 7.009 78.5399 7.599C73.2969 9.061 69.2959 11.088 64.0739 13.733C61.7649 14.903 59.8799 15.934 58.5809 16.663C59.0729 17.157 59.7969 17.953 60.5039 19.043C61.7469 20.961 62.0469 22.417 63.1599 25.635Z" fill="black"/>
<path d="M75.3359 18.036C76.9229 17.692 77.6399 17.999 78.5399 17.395C79.2809 16.898 79.6379 16.125 79.8219 15.564C78.3619 15.387 75.7419 15.265 72.7719 16.296C70.5159 17.08 67.7569 18.038 66.7289 20.691C65.7899 23.114 66.5059 26.406 68.3769 27.558C70.1929 28.675 72.6349 27.492 72.9549 28.29C73.0569 28.546 72.8789 28.848 71.3069 30.762C69.6269 32.806 69.3919 32.995 69.4759 33.142C69.8239 33.754 74.9729 32.423 75.3349 30.121C75.4309 29.509 75.0999 29.395 74.6029 27.741C73.9829 25.679 74.3459 25.354 73.8709 23.713C73.1199 21.124 71.8259 20.588 72.2229 19.593C72.6079 18.628 74.1589 18.292 75.3359 18.036Z" fill="black"/>
<path d="M78.4488 31.312C77.4338 31.932 76.4808 32.244 75.7938 32.411C76.1138 32.574 77.2218 33.189 77.7168 34.517C77.8658 34.916 78.3328 36.171 77.6248 37.264C77.1348 38.022 76.3508 38.283 76.0688 38.363C77.1098 38.239 78.4778 37.909 78.9988 36.898C79.4108 36.099 79.0358 35.37 78.9988 34.151C78.9688 33.151 79.1628 31.685 80.2808 29.848C79.8518 30.289 79.2488 30.824 78.4488 31.312Z" fill="black"/>
<path d="M89.3438 10.895C89.1028 9.579 88.6298 7.662 88.4278 7.691C88.3848 7.697 88.3428 7.793 88.2448 9.247C88.2018 9.885 88.1728 10.419 88.1528 10.803C89.9898 16.991 88.9818 20.286 87.6948 22.156C86.1678 24.376 84.1438 24.741 82.2928 28.29C81.4178 29.967 80.6518 31.436 80.5528 33.509C80.4688 35.284 80.9358 36.2 80.2778 37.354C79.3148 39.045 77.0478 39.3 77.0738 39.368C77.1008 39.441 79.7488 39.237 80.8278 37.445C81.5068 36.316 81.0378 35.431 81.1938 33.508C81.3728 31.307 82.2098 29.737 82.9338 28.381C84.8798 24.731 86.7278 25.487 88.5188 22.522C90.7838 18.773 89.9278 14.088 89.3438 10.895Z" fill="black"/>
<path d="M18.1148 11.536C18.5658 12.824 18.7568 13.935 18.8468 14.649C19.3748 14.287 20.3138 13.75 21.5938 13.55C23.7498 13.213 25.4278 14.059 25.9888 14.374C25.1788 12.515 23.9938 10.431 22.2348 8.423C15.4358 0.661 5.35585 0.072 2.64185 0C5.76985 0.337 8.07085 1.318 9.41685 2.014C10.6908 2.673 16.0078 5.523 18.1148 11.536Z" fill="black"/>
<path d="M17.7488 16.48C17.6998 15.69 17.3788 11.915 14.1778 8.973C11.1478 6.187 7.60784 6.053 6.76184 6.043C8.11084 6.452 11.5148 7.691 13.9028 11.078C14.8908 12.479 15.4288 13.857 15.7338 14.923C14.9478 15.467 13.8968 16.32 12.8958 17.578C11.9158 18.809 11.3268 19.998 10.9728 20.874C11.7658 22.064 12.5598 23.254 13.3528 24.445C13.3148 23.625 13.3068 21.15 15.0008 18.86C15.9378 17.596 17.0368 16.869 17.7488 16.48Z" fill="black"/>
<path d="M0.44489 0.550003C-0.00111049 3.136 -0.417111 7.525 0.810889 12.727C1.86989 17.211 3.73889 20.554 5.11389 22.615C5.06289 24.354 5.43689 25.596 5.75489 26.369C6.22489 27.508 6.76589 28.093 8.68489 30.58C9.57889 31.739 10.2829 32.677 10.6989 33.235C10.4949 32.427 10.2009 30.792 10.6989 28.84C11.0829 27.336 11.7819 26.256 12.2549 25.636C10.3499 23.627 8.23589 21.026 6.30389 17.762C2.36189 11.105 0.97789 4.741 0.44489 0.550003Z" fill="black"/>
<path d="M42.0109 13.367C48.5189 13.848 53.7779 15.386 57.3009 16.663C53.8619 14.899 48.6489 12.785 42.1029 12.268C33.9039 11.622 27.1459 13.762 27.1799 14.008C27.2109 14.244 33.4909 12.738 42.0109 13.367Z" fill="black"/>
<path d="M20.9528 18.952C19.0308 21.439 17.5658 24.455 18.1148 24.903C18.4558 25.182 19.2988 24.24 21.5028 23.713C22.2638 23.531 22.9078 23.465 23.3338 23.438C23.1238 22.67 22.9338 21.637 22.9678 20.417C23.0338 18.068 23.8948 16.298 24.4328 15.382C23.5158 16.129 22.2288 17.3 20.9528 18.952Z" fill="black"/>
<path d="M59.8639 31.129C59.6729 28.909 58.0409 27.97 57.0259 24.812C56.4859 23.132 56.3879 21.655 56.3849 20.692C56.1839 21.735 55.7499 23.31 54.7369 24.995C53.6029 26.881 52.2379 28.081 51.3489 28.749C52.2139 29.036 53.4889 29.588 54.7369 30.672C56.9989 32.638 57.7129 35.093 57.9409 36.074C59.7119 33.908 59.9589 32.243 59.8639 31.129Z" fill="black"/>
<path d="M26.8129 73.244C25.2889 70.779 24.7289 69.028 24.4329 69.124C24.0019 69.264 24.0889 73.326 26.5389 76.448C28.7529 79.27 31.8659 80.008 32.8559 80.202C31.1919 78.808 28.8589 76.554 26.8129 73.244Z" fill="black"/>
<path d="M53.1799 48.982C55.5049 47.862 57.0409 45.471 57.2079 42.756C56.9649 43.521 56.4389 44.837 55.2899 46.122C53.9089 47.666 52.3969 48.304 52.0799 48.433C49.2789 49.57 46.6889 48.712 46.6779 48.799C46.6679 48.898 49.9319 50.547 53.1799 48.982Z" fill="black"/>
<path d="M72.5899 50.721C70.9899 47.271 70.4129 44.711 70.2099 44.77C69.9889 44.834 70.4609 47.898 71.7659 51.179C71.7659 51.179 71.7769 51.206 71.7869 51.233C73.2899 54.987 76.7429 59.449 77.8079 60.975C81.3589 66.066 81.2799 71.369 81.4699 71.321C81.6589 71.273 81.4849 66.111 78.7229 60.609C76.6459 56.471 75.0019 55.92 72.5899 50.721Z" fill="black"/>
</svg>
